<?xml version="1.0" encoding="UTF-8" standalone="no"?>
<svg xmlns="http://www.w3.org/2000/svg" viewBox="0 0 348 349">
    <g transform="translate(0.000000,349.000000) scale(0.100000,-0.100000)" stroke="none" id="g4">
        <path style="display:inline" d="M 232 53.943359 A 117.19111 42.341312 0 0 0 114.80859 96.285156 L 114.80859 368.28516 A 117.19111 42.341312 0 0 0 232 410.625 A 117.19111 42.341312 0 0 0 349.19141 368.28516 L 349.19141 96.285156 A 117.19111 42.341312 0 0 0 232 53.943359 z M 232 63.353516 A 104.99152 32.930203 0 0 1 336.99219 96.285156 A 104.99152 32.930203 0 0 1 232 129.21484 A 104.99152 32.930203 0 0 1 127.00781 96.285156 A 104.99152 32.930203 0 0 1 232 63.353516 z " transform="matrix(7.4999999,0,0,-7.4999999,0,3490)" id="path4526" />
    </g>
</svg>
